<?xml version="1.0" encoding="utf-8"?>
<!-- Generator: Adobe Illustrator 24.0.2, SVG Export Plug-In . SVG Version: 6.00 Build 0)  -->
<svg version="1.1" id="Capa_1" xmlns="http://www.w3.org/2000/svg" xmlns:xlink="http://www.w3.org/1999/xlink" x="0px" y="0px"
	 width="335px" height="109px" viewBox="0 0 335 109" style="enable-background:new 0 0 335 109;" xml:space="preserve">
<style type="text/css">
	.st0{fill:#0092C6;}
</style>
<g>
	<g>
		<g>
			<path class="st0" d="M89.2,40.1l0.9-0.5c0.5,1.6,1.8,2.7,4,2.7s3.3-1.2,3.3-2.7c0-1.6-1.4-2.2-3.5-2.8c-2.2-0.7-4.2-1.3-4.2-3.7
				c0-2.2,1.8-3.6,4-3.6s3.6,1.2,4.3,2.8l-0.9,0.5c-0.5-1.2-1.5-2.3-3.4-2.3c-1.8,0-3,1.1-3,2.6c0,1.6,1.4,2.1,3.3,2.7
				c2.4,0.8,4.4,1.5,4.4,3.8c0,2.2-1.7,3.7-4.4,3.7C91.6,43.2,89.8,42,89.2,40.1z"/>
			<path class="st0" d="M112.3,42v1h-7.7V29.7h7.6v1h-6.6v5.2h6.1v1h-6.1v5.3L112.3,42z"/>
			<path class="st0" d="M123.8,37.4h-4.2v5.5h-1V29.6h5.3c2.2,0,3.9,1.8,4,3.9c0,1.8-1.2,3.3-2.9,3.8l3.3,5.6h-1.2L123.8,37.4z
				 M119.6,36.5h4.2c1.6,0,2.9-1.3,2.9-3s-1.3-3-2.9-3h-4.2V36.5z"/>
			<path class="st0" d="M132.4,29.5h1.1l4.4,12l4.4-12h1.1l-4.9,13.3h-1.1L132.4,29.5z"/>
			<path class="st0" d="M150.2,29.5v13.3h-1V29.5H150.2z"/>
			<path class="st0" d="M156.6,36.1c0-3.8,2.8-6.9,6.9-6.9c2.5,0,4.6,1.2,5.7,3.2l-0.9,0.5c-0.9-1.6-2.7-2.7-4.8-2.7
				c-3.5,0-5.9,2.6-5.9,5.9c0,3.3,2.4,5.9,5.9,5.9c2.1,0,4-1.1,4.8-2.8l0.9,0.5c-1.1,2-3.2,3.3-5.7,3.3
				C159.5,43,156.6,39.9,156.6,36.1z"/>
			<path class="st0" d="M176.4,29.4v13.3h-1V29.4L176.4,29.4z"/>
			<path class="st0" d="M182.8,36c0-3.8,3-6.9,6.8-6.9s6.9,3,6.9,6.8c0,3.8-3,6.9-6.8,6.9C185.8,42.9,182.8,39.8,182.8,36z
				 M195.5,36c0-3.3-2.6-5.9-5.9-5.9c-3.3,0-5.9,2.6-5.8,5.9c0,3.3,2.6,5.9,5.9,5.9C193,41.9,195.5,39.2,195.5,36z"/>
			<path class="st0" d="M201.6,39.7l0.9-0.5c0.5,1.6,1.8,2.7,4,2.7s3.3-1.2,3.3-2.7c0-1.6-1.4-2.2-3.5-2.8c-2.2-0.7-4.2-1.3-4.2-3.7
				c0-2.2,1.8-3.6,4-3.6s3.6,1.2,4.3,2.8l-0.9,0.5c-0.5-1.2-1.5-2.3-3.4-2.3c-1.8,0-3,1.1-3,2.6c0,1.6,1.4,2.1,3.3,2.7
				c2.4,0.8,4.4,1.5,4.4,3.8c0,2.2-1.7,3.7-4.4,3.7C204,42.8,202.2,41.6,201.6,39.7z"/>
		</g>
	</g>
	<g>
		<path class="st0" d="M108.7,55.8h-7.4l0.1,22.5h-6.6l-0.1-22.5h-7.4v-6.3l21.4-0.1V55.8z"/>
		<path class="st0" d="M121.3,57.2v7c-2.6-0.4-6.2,0.6-6.2,4.7v9.3h-6.2l-0.1-20.6h6.2v3.7C115.9,58.6,118.7,57.2,121.3,57.2z"/>
		<path class="st0" d="M123.5,52.1c0-2,1.7-3.7,3.7-3.7s3.7,1.7,3.7,3.7s-1.7,3.7-3.7,3.7C125.3,55.8,123.6,54.1,123.5,52.1z
			 M124.2,57.6h6.2l0.1,20.6h-6.2L124.2,57.6z"/>
		<path class="st0" d="M157.1,67.8c0,6.1-4.4,10.9-9.8,10.9c-2.8,0-4.8-0.9-6.1-2.5v1.9H135l-0.1-28.8h6.2v10.2
			c1.4-1.6,3.4-2.5,6.1-2.5C152.6,57,157.1,61.7,157.1,67.8z M150.9,67.8c0-3.1-2.1-5-4.9-5c-2.8,0-4.9,2-4.9,5c0,3.1,2.1,5,4.9,5
			C148.9,72.9,150.9,70.9,150.9,67.8z"/>
		<path class="st0" d="M159.6,67.8c0-6.1,4.8-10.9,10.9-10.9c6.1,0,10.9,4.7,11,10.8c0,6.1-4.8,10.9-10.9,10.9
			C164.5,78.7,159.6,73.9,159.6,67.8z M175.2,67.8c0-2.9-2.1-4.9-4.8-4.8c-2.7,0-4.7,2-4.7,4.9s2.1,4.9,4.8,4.8
			S175.2,70.7,175.2,67.8z"/>
		<path class="st0" d="M184.9,47.9h6.2l0.1,30.1H185L184.9,47.9z"/>
		<path class="st0" d="M194.6,67.7c0-6.1,4.8-10.9,10.9-10.9c6.1,0,10.9,4.7,11,10.8c0,6.1-4.8,10.9-10.9,10.9
			C199.5,78.5,194.6,73.8,194.6,67.7z M210.3,67.6c0-2.9-2.1-4.9-4.8-4.8c-2.7,0-4.7,2-4.7,4.9c0,2.9,2.1,4.9,4.8,4.8
			C208.2,72.5,210.3,70.5,210.3,67.6z M207.7,54.4l4.8-5.8h-7.4l-3.3,5.8H207.7z"/>
		<path class="st0" d="M241,57.2l0.1,19.6c0,6.9-5.4,9.9-10.8,9.9c-4.3,0-7.9-1.6-9.8-4.9l5.3-3.1c0.8,1.4,2,2.6,4.7,2.6
			c2.9,0,4.6-1.5,4.6-4.4V75c-1.4,1.7-3.3,2.7-6,2.7c-5.8,0-10.2-4.7-10.2-10.4s4.2-10.5,10.1-10.5c2.7,0,4.7,1,6,2.7v-2.1L241,57.2
			z M235.1,67.1c0-2.8-2.1-4.8-5-4.8s-5,2-5,4.8c0,2.8,2.1,4.8,5,4.8S235.1,70,235.1,67.1z"/>
		<path class="st0" d="M244.9,51.7c0-2,1.7-3.7,3.7-3.7s3.7,1.7,3.7,3.7s-1.7,3.7-3.7,3.7C246.7,55.4,245,53.7,244.9,51.7z
			 M245.6,57.2h6.2l0.1,20.6h-6.2L245.6,57.2z"/>
		<path class="st0" d="M255.3,67.5c0-6.1,4.6-10.9,10.9-10.9c4,0,7.5,2.1,9.3,5.2l-5.4,3.2c-0.7-1.4-2.2-2.3-4-2.3
			c-2.7,0-4.6,2-4.6,4.8s2,4.8,4.7,4.8c1.8,0,3.3-0.9,4-2.3l5.4,3.1c-1.8,3.2-5.3,5.3-9.3,5.3C260,78.3,255.3,73.6,255.3,67.5z"/>
		<path class="st0" d="M276.6,67.4c0-6.1,4.8-10.9,10.9-10.9s10.9,4.7,11,10.8c0,6.1-4.8,10.9-10.9,10.9
			C281.5,78.2,276.6,73.5,276.6,67.4z M292.2,67.3c0-2.9-2.1-4.9-4.8-4.8s-4.7,2-4.7,4.9s2.1,4.9,4.8,4.8
			C290.2,72.2,292.2,70.3,292.2,67.3z"/>
		<path class="st0" d="M317.5,71.4c0,4.7-4.1,6.8-8.5,6.8c-4.1,0-7.3-1.5-8.9-4.9l5.3-3.1c0.5,1.6,1.7,2.4,3.5,2.4
			c1.5,0,2.2-0.5,2.2-1.3c0-2.3-10.1-1-10.2-8.2c0-4.5,3.8-6.8,8-6.8c3.3,0,6.3,1.5,8.1,4.4l-5.3,2.9c-0.6-1.1-1.4-1.8-2.8-1.8
			c-1.1,0-1.7,0.4-1.7,1.2C307.3,65.3,317.5,63.7,317.5,71.4z"/>
	</g>
	<g>
		<g>
			<path class="st0" d="M44.5,86.2c-14.8,0.1-26.9-12-27-26.8s12-26.9,26.8-27c14.8-0.1,26.9,12,27,26.8
				C71.3,74,59.3,86.1,44.5,86.2z M44.3,36.3c-12.7,0-22.9,10.4-22.9,23c0,12.7,10.4,22.9,23,22.9c12.7,0,22.9-10.4,22.9-23
				C67.3,46.5,56.9,36.3,44.3,36.3z"/>
		</g>
		<g>
			<path class="st0" d="M63.5,45.3l-38.2,0.1c-0.8,0-1.5-0.5-1.8-1.2s-0.1-1.6,0.4-2.1l19-19.2c0.8-0.8,2-0.8,2.8,0l19.2,19
				c0.6,0.6,0.7,1.4,0.4,2.1C65,44.8,64.2,45.3,63.5,45.3z M29.9,41.5l28.8-0.1L44.3,27.1L29.9,41.5z"/>
		</g>
	</g>
</g>
<g id="Grilla-guias">
</g>
</svg>
